<?xml version="1.0" encoding="UTF-8" standalone="no"?>
<!DOCTYPE svg PUBLIC "-//W3C//DTD SVG 1.1//EN"
 "http://www.w3.org/Graphics/SVG/1.1/DTD/svg11.dtd">
<!-- Generated by graphviz version 8.0.5 (0)
 -->
<!-- Title: entities and relations Pages: 1 -->
<svg width="238pt" height="98pt"
 viewBox="0.00 0.00 237.50 98.00" xmlns="http://www.w3.org/2000/svg" xmlns:xlink="http://www.w3.org/1999/xlink">
<g id="graph0" class="graph" transform="scale(1 1) rotate(0) translate(4 94)">
<title>entities and relations</title>
<polygon fill="white" stroke="none" points="-4,4 -4,-94 233.5,-94 233.5,4 -4,4"/>
<!-- A -->
<g id="node1" class="node">
<title>A</title>
<ellipse fill="none" stroke="black" cx="27" cy="-72" rx="27" ry="18"/>
<text text-anchor="middle" x="27" y="-67.33" font-family="Times,serif" font-size="14.00">A</text>
</g>
<!-- B -->
<g id="node2" class="node">
<title>B</title>
<ellipse fill="none" stroke="black" cx="202.5" cy="-45" rx="27" ry="18"/>
<text text-anchor="middle" x="202.5" y="-40.33" font-family="Times,serif" font-size="14.00">B</text>
</g>
<!-- A&#45;&gt;B -->
<g id="edge1" class="edge">
<title>A&#45;&gt;B</title>
<path fill="none" stroke="black" d="M53.6,-68.02C83.07,-63.43 131.7,-55.86 165.1,-50.66"/>
<polygon fill="black" stroke="black" points="165.45,-54 174.79,-49 164.38,-47.08 165.45,-54"/>
<text text-anchor="middle" x="114.75" y="-67.95" font-family="Times,serif" font-size="14.00">relation A:B</text>
</g>
<!-- C -->
<g id="node3" class="node">
<title>C</title>
<ellipse fill="none" stroke="black" cx="27" cy="-18" rx="27" ry="18"/>
<text text-anchor="middle" x="27" y="-13.32" font-family="Times,serif" font-size="14.00">C</text>
</g>
<!-- C&#45;&gt;B -->
<g id="edge2" class="edge">
<title>C&#45;&gt;B</title>
<path fill="none" stroke="black" d="M54.05,-18.92C80.38,-20.23 122.12,-23.37 157.5,-30.75 160.96,-31.47 164.53,-32.37 168.07,-33.35"/>
<polygon fill="black" stroke="black" points="166.87,-36.95 177.46,-36.51 168.91,-30.25 166.87,-36.95"/>
<text text-anchor="middle" x="114.75" y="-33.95" font-family="Times,serif" font-size="14.00">relation C:B</text>
</g>
</g>
</svg>