<?xml version="1.0" encoding="UTF-8" standalone="no"?>
<!DOCTYPE svg PUBLIC "-//W3C//DTD SVG 1.1//EN"
 "http://www.w3.org/Graphics/SVG/1.1/DTD/svg11.dtd">
<!-- Generated by graphviz version 8.0.5 (0)
 -->
<!-- Pages: 1 -->
<svg width="515pt" height="98pt"
 viewBox="0.00 0.00 515.09 98.00" xmlns="http://www.w3.org/2000/svg" xmlns:xlink="http://www.w3.org/1999/xlink">
<g id="graph0" class="graph" transform="scale(1 1) rotate(0) translate(4 94)">
<polygon fill="white" stroke="none" points="-4,4 -4,-94 511.09,-94 511.09,4 -4,4"/>
<!-- living_room -->
<g id="node1" class="node">
<title>living_room</title>
<ellipse fill="none" stroke="black" cx="69.62" cy="-45" rx="69.62" ry="18"/>
<text text-anchor="middle" x="69.62" y="-40.33" font-family="Times,serif" font-size="14.00">living_room</text>
</g>
<!-- dwelling -->
<g id="node2" class="node">
<title>dwelling</title>
<ellipse fill="none" stroke="black" cx="277.08" cy="-45" rx="53.84" ry="18"/>
<text text-anchor="middle" x="277.08" y="-40.33" font-family="Times,serif" font-size="14.00">dwelling</text>
</g>
<!-- living_room&#45;&gt;dwelling -->
<g id="edge1" class="edge">
<title>living_room&#45;&gt;dwelling</title>
<path fill="none" stroke="black" d="M139.61,-45C163.06,-45 189.15,-45 212.18,-45"/>
<polygon fill="black" stroke="black" points="211.87,-48.5 221.87,-45 211.87,-41.5 211.87,-48.5"/>
<text text-anchor="middle" x="181.24" y="-48.95" font-family="Times,serif" font-size="14.00">part of</text>
</g>
<!-- home -->
<g id="node3" class="node">
<title>home</title>
<ellipse fill="none" stroke="black" cx="465.88" cy="-72" rx="38.58" ry="18"/>
<text text-anchor="middle" x="465.88" y="-67.33" font-family="Times,serif" font-size="14.00">home</text>
</g>
<!-- dwelling&#45;&gt;home -->
<g id="edge2" class="edge">
<title>dwelling&#45;&gt;home</title>
<path fill="none" stroke="black" d="M327.16,-52.09C355.22,-56.15 390.22,-61.21 417.92,-65.21"/>
<polygon fill="black" stroke="black" points="417.13,-68.78 427.53,-66.75 418.13,-61.85 417.13,-68.78"/>
<text text-anchor="middle" x="377.8" y="-66.95" font-family="Times,serif" font-size="14.00">same as</text>
</g>
<!-- abode -->
<g id="node4" class="node">
<title>abode</title>
<ellipse fill="none" stroke="black" cx="465.88" cy="-18" rx="41.21" ry="18"/>
<text text-anchor="middle" x="465.88" y="-13.32" font-family="Times,serif" font-size="14.00">abode</text>
</g>
<!-- dwelling&#45;&gt;abode -->
<g id="edge3" class="edge">
<title>dwelling&#45;&gt;abode</title>
<path fill="none" stroke="black" d="M326.07,-37.23C333.71,-36.04 341.53,-34.84 348.92,-33.75 370.64,-30.55 394.69,-27.24 415.23,-24.49"/>
<polygon fill="black" stroke="black" points="415.48,-27.86 424.93,-23.07 414.56,-20.92 415.48,-27.86"/>
<text text-anchor="middle" x="377.8" y="-36.95" font-family="Times,serif" font-size="14.00">same as</text>
</g>
</g>
</svg>